<mxfile host="app.diagrams.net" modified="2023-11-04T11:50:35.705Z" agent="Mozilla/5.0 (Windows NT 10.0; Win64; x64) AppleWebKit/537.36 (KHTML, like Gecko) Chrome/118.0.0.0 Safari/537.36" etag="KDr6vSsblPKxfBF247W9" version="21.7.4" type="device">
  <diagram name="第 1 页" id="XrdoL_Mt9Lyks1M9K59d">
    <mxGraphModel dx="1434" dy="782" grid="0" gridSize="10" guides="1" tooltips="1" connect="1" arrows="1" fold="1" page="1" pageScale="1" pageWidth="827" pageHeight="1169" math="0" shadow="0">
      <root>
        <mxCell id="0" />
        <mxCell id="1" parent="0" />
        <mxCell id="HcswQykE-cHgSKoDup67-1" value="Cloud / Server / ..." style="ellipse;shape=cloud;whiteSpace=wrap;html=1;fillColor=#dae8fc;strokeColor=#6c8ebf;" parent="1" vertex="1">
          <mxGeometry x="126" y="190" width="220" height="110" as="geometry" />
        </mxCell>
        <mxCell id="HcswQykE-cHgSKoDup67-3" value="" style="rounded=0;whiteSpace=wrap;html=1;fillColor=#ffe6cc;strokeColor=#d79b00;" parent="1" vertex="1">
          <mxGeometry x="140" y="380" width="324" height="280" as="geometry" />
        </mxCell>
        <mxCell id="HcswQykE-cHgSKoDup67-9" value="MCU" style="rounded=0;whiteSpace=wrap;html=1;fillColor=#d5e8d4;strokeColor=#82b366;" parent="1" vertex="1">
          <mxGeometry x="174" y="501" width="247" height="120" as="geometry" />
        </mxCell>
        <mxCell id="HcswQykE-cHgSKoDup67-11" style="edgeStyle=orthogonalEdgeStyle;rounded=0;orthogonalLoop=1;jettySize=auto;html=1;entryX=0.25;entryY=0;entryDx=0;entryDy=0;startArrow=blockThin;startFill=1;" parent="1" source="HcswQykE-cHgSKoDup67-10" target="HcswQykE-cHgSKoDup67-9" edge="1">
          <mxGeometry relative="1" as="geometry" />
        </mxCell>
        <mxCell id="HcswQykE-cHgSKoDup67-10" value="Module" style="rounded=0;whiteSpace=wrap;html=1;" parent="1" vertex="1">
          <mxGeometry x="176" y="406" width="120" height="60" as="geometry" />
        </mxCell>
        <mxCell id="HcswQykE-cHgSKoDup67-12" value="UART" style="text;html=1;align=center;verticalAlign=middle;resizable=0;points=[];autosize=1;strokeColor=none;fillColor=none;" parent="1" vertex="1">
          <mxGeometry x="180" y="470" width="50" height="26" as="geometry" />
        </mxCell>
        <mxCell id="HcswQykE-cHgSKoDup67-17" style="edgeStyle=orthogonalEdgeStyle;rounded=0;orthogonalLoop=1;jettySize=auto;html=1;startArrow=blockThin;startFill=1;strokeColor=#FF3333;dashed=1;dashPattern=12 12;" parent="1" source="HcswQykE-cHgSKoDup67-1" target="HcswQykE-cHgSKoDup67-10" edge="1">
          <mxGeometry relative="1" as="geometry" />
        </mxCell>
        <mxCell id="HcswQykE-cHgSKoDup67-18" value="NBIoT / CatM1" style="text;html=1;align=center;verticalAlign=middle;resizable=0;points=[];autosize=1;strokeColor=none;fillColor=none;" parent="1" vertex="1">
          <mxGeometry x="110" y="322" width="97" height="26" as="geometry" />
        </mxCell>
        <mxCell id="HcswQykE-cHgSKoDup67-19" value="UART" style="rounded=0;whiteSpace=wrap;html=1;" parent="1" vertex="1">
          <mxGeometry x="437" y="475" width="120" height="39" as="geometry" />
        </mxCell>
        <mxCell id="HcswQykE-cHgSKoDup67-20" value="USB" style="rounded=0;whiteSpace=wrap;html=1;" parent="1" vertex="1">
          <mxGeometry x="437" y="527" width="120" height="39" as="geometry" />
        </mxCell>
        <mxCell id="HcswQykE-cHgSKoDup67-21" value="SWD" style="rounded=0;whiteSpace=wrap;html=1;" parent="1" vertex="1">
          <mxGeometry x="437" y="579" width="120" height="39" as="geometry" />
        </mxCell>
        <mxCell id="HcswQykE-cHgSKoDup67-26" value="GPIO" style="rounded=0;whiteSpace=wrap;html=1;" parent="1" vertex="1">
          <mxGeometry x="360" y="636" width="59" height="60" as="geometry" />
        </mxCell>
        <mxCell id="HcswQykE-cHgSKoDup67-27" value="ADC" style="rounded=0;whiteSpace=wrap;html=1;" parent="1" vertex="1">
          <mxGeometry x="284" y="636" width="59" height="60" as="geometry" />
        </mxCell>
        <mxCell id="kLjoqnNt8olyTbzULoK--1" value="" style="rounded=0;whiteSpace=wrap;html=1;fillColor=#ffcd28;gradientColor=#ffa500;strokeColor=#d79b00;" parent="1" vertex="1">
          <mxGeometry x="23" y="1245" width="761" height="79" as="geometry" />
        </mxCell>
        <mxCell id="kLjoqnNt8olyTbzULoK--4" value="ORing Cloud" style="rounded=1;whiteSpace=wrap;html=1;fillColor=#0050ef;fontColor=#ffffff;strokeColor=#001DBC;" parent="1" vertex="1">
          <mxGeometry x="42" y="1254.5" width="120" height="60" as="geometry" />
        </mxCell>
        <mxCell id="kLjoqnNt8olyTbzULoK--5" value="FOTA" style="rounded=1;whiteSpace=wrap;html=1;fillColor=#0050ef;fontColor=#ffffff;strokeColor=#001DBC;" parent="1" vertex="1">
          <mxGeometry x="329.5" y="1254.5" width="120" height="60" as="geometry" />
        </mxCell>
        <mxCell id="kLjoqnNt8olyTbzULoK--6" value="ID Manager" style="rounded=1;whiteSpace=wrap;html=1;fillColor=#0050ef;fontColor=#ffffff;strokeColor=#001DBC;" parent="1" vertex="1">
          <mxGeometry x="186" y="1254.5" width="120" height="60" as="geometry" />
        </mxCell>
        <mxCell id="kLjoqnNt8olyTbzULoK--7" value="Package Transmission" style="rounded=1;whiteSpace=wrap;html=1;fillColor=#0050ef;fontColor=#ffffff;strokeColor=#001DBC;" parent="1" vertex="1">
          <mxGeometry x="617" y="1254.5" width="153" height="60" as="geometry" />
        </mxCell>
        <mxCell id="kLjoqnNt8olyTbzULoK--8" value="Mode Switch" style="rounded=1;whiteSpace=wrap;html=1;fillColor=#0050ef;fontColor=#ffffff;strokeColor=#001DBC;" parent="1" vertex="1">
          <mxGeometry x="473" y="1254.5" width="120" height="60" as="geometry" />
        </mxCell>
        <mxCell id="kLjoqnNt8olyTbzULoK--9" value="" style="rounded=0;whiteSpace=wrap;html=1;fillColor=#ffcd28;gradientColor=#ffa500;strokeColor=#d79b00;" parent="1" vertex="1">
          <mxGeometry x="23" y="1369" width="761" height="263" as="geometry" />
        </mxCell>
        <mxCell id="kLjoqnNt8olyTbzULoK--10" value="Modbus" style="rounded=1;whiteSpace=wrap;html=1;fillColor=#0050ef;fontColor=#ffffff;strokeColor=#001DBC;" parent="1" vertex="1">
          <mxGeometry x="42" y="1378.5" width="120" height="60" as="geometry" />
        </mxCell>
        <mxCell id="kLjoqnNt8olyTbzULoK--11" value="Bluetooth" style="rounded=1;whiteSpace=wrap;html=1;fillColor=#0050ef;fontColor=#ffffff;strokeColor=#001DBC;" parent="1" vertex="1">
          <mxGeometry x="473" y="1378.5" width="120" height="60" as="geometry" />
        </mxCell>
        <mxCell id="kLjoqnNt8olyTbzULoK--12" value="MQTT" style="rounded=1;whiteSpace=wrap;html=1;fillColor=#0050ef;fontColor=#ffffff;strokeColor=#001DBC;" parent="1" vertex="1">
          <mxGeometry x="186" y="1378.5" width="120" height="60" as="geometry" />
        </mxCell>
        <mxCell id="kLjoqnNt8olyTbzULoK--13" value="HTTP" style="rounded=1;whiteSpace=wrap;html=1;fillColor=#0050ef;fontColor=#ffffff;strokeColor=#001DBC;" parent="1" vertex="1">
          <mxGeometry x="329.5" y="1378.5" width="120" height="60" as="geometry" />
        </mxCell>
        <mxCell id="kLjoqnNt8olyTbzULoK--14" value="Flash" style="rounded=1;whiteSpace=wrap;html=1;fillColor=#0050ef;fontColor=#ffffff;strokeColor=#001DBC;" parent="1" vertex="1">
          <mxGeometry x="186" y="1469" width="120" height="60" as="geometry" />
        </mxCell>
        <mxCell id="kLjoqnNt8olyTbzULoK--15" value="Modem" style="rounded=1;whiteSpace=wrap;html=1;fillColor=#0050ef;fontColor=#ffffff;strokeColor=#001DBC;" parent="1" vertex="1">
          <mxGeometry x="477" y="1469" width="120" height="60" as="geometry" />
        </mxCell>
        <mxCell id="kLjoqnNt8olyTbzULoK--16" value="Socket" style="rounded=1;whiteSpace=wrap;html=1;fillColor=#0050ef;fontColor=#ffffff;strokeColor=#001DBC;" parent="1" vertex="1">
          <mxGeometry x="617" y="1469" width="120" height="60" as="geometry" />
        </mxCell>
        <mxCell id="kLjoqnNt8olyTbzULoK--17" value="Voltage Monitor" style="rounded=1;whiteSpace=wrap;html=1;fillColor=#0050ef;fontColor=#ffffff;strokeColor=#001DBC;" parent="1" vertex="1">
          <mxGeometry x="329.5" y="1469" width="120" height="60" as="geometry" />
        </mxCell>
        <mxCell id="kLjoqnNt8olyTbzULoK--18" value="Console" style="rounded=1;whiteSpace=wrap;html=1;fillColor=#0050ef;fontColor=#ffffff;strokeColor=#001DBC;" parent="1" vertex="1">
          <mxGeometry x="42" y="1469" width="120" height="60" as="geometry" />
        </mxCell>
        <mxCell id="kLjoqnNt8olyTbzULoK--19" value="AT Command" style="rounded=1;whiteSpace=wrap;html=1;fillColor=#0050ef;fontColor=#ffffff;strokeColor=#001DBC;" parent="1" vertex="1">
          <mxGeometry x="617" y="1378.5" width="120" height="60" as="geometry" />
        </mxCell>
        <mxCell id="kLjoqnNt8olyTbzULoK--21" value="SD Card" style="rounded=1;whiteSpace=wrap;html=1;fillColor=#0050ef;fontColor=#ffffff;strokeColor=#001DBC;" parent="1" vertex="1">
          <mxGeometry x="42" y="1560" width="120" height="60" as="geometry" />
        </mxCell>
        <mxCell id="kLjoqnNt8olyTbzULoK--22" value="" style="rounded=0;whiteSpace=wrap;html=1;fillColor=#ffcd28;gradientColor=#ffa500;strokeColor=#d79b00;" parent="1" vertex="1">
          <mxGeometry x="21" y="1670" width="761" height="180" as="geometry" />
        </mxCell>
        <mxCell id="kLjoqnNt8olyTbzULoK--23" value="UART" style="rounded=1;whiteSpace=wrap;html=1;fillColor=#0050ef;fontColor=#ffffff;strokeColor=#001DBC;" parent="1" vertex="1">
          <mxGeometry x="42" y="1684" width="120" height="60" as="geometry" />
        </mxCell>
        <mxCell id="kLjoqnNt8olyTbzULoK--24" value="I2C" style="rounded=1;whiteSpace=wrap;html=1;fillColor=#0050ef;fontColor=#ffffff;strokeColor=#001DBC;" parent="1" vertex="1">
          <mxGeometry x="186" y="1684" width="120" height="60" as="geometry" />
        </mxCell>
        <mxCell id="kLjoqnNt8olyTbzULoK--25" value="SPI" style="rounded=1;whiteSpace=wrap;html=1;fillColor=#0050ef;fontColor=#ffffff;strokeColor=#001DBC;" parent="1" vertex="1">
          <mxGeometry x="329.5" y="1684" width="120" height="60" as="geometry" />
        </mxCell>
        <mxCell id="kLjoqnNt8olyTbzULoK--26" value="Watch Dog" style="rounded=1;whiteSpace=wrap;html=1;fillColor=#0050ef;fontColor=#ffffff;strokeColor=#001DBC;" parent="1" vertex="1">
          <mxGeometry x="42" y="1766" width="120" height="60" as="geometry" />
        </mxCell>
        <mxCell id="kLjoqnNt8olyTbzULoK--27" value="RTC" style="rounded=1;whiteSpace=wrap;html=1;fillColor=#0050ef;fontColor=#ffffff;strokeColor=#001DBC;" parent="1" vertex="1">
          <mxGeometry x="186" y="1766" width="120" height="60" as="geometry" />
        </mxCell>
        <mxCell id="kLjoqnNt8olyTbzULoK--28" value="Timer" style="rounded=1;whiteSpace=wrap;html=1;fillColor=#0050ef;fontColor=#ffffff;strokeColor=#001DBC;" parent="1" vertex="1">
          <mxGeometry x="329.5" y="1766" width="120" height="60" as="geometry" />
        </mxCell>
        <mxCell id="kLjoqnNt8olyTbzULoK--29" value="ADC/DAC" style="rounded=1;whiteSpace=wrap;html=1;fillColor=#0050ef;fontColor=#ffffff;strokeColor=#001DBC;" parent="1" vertex="1">
          <mxGeometry x="473" y="1686" width="120" height="60" as="geometry" />
        </mxCell>
        <mxCell id="kLjoqnNt8olyTbzULoK--30" value="DI/DO" style="rounded=1;whiteSpace=wrap;html=1;fillColor=#0050ef;fontColor=#ffffff;strokeColor=#001DBC;" parent="1" vertex="1">
          <mxGeometry x="617" y="1684" width="120" height="60" as="geometry" />
        </mxCell>
        <mxCell id="kLjoqnNt8olyTbzULoK--31" value="IC" style="rounded=1;whiteSpace=wrap;html=1;fillColor=#0050ef;fontColor=#ffffff;strokeColor=#001DBC;" parent="1" vertex="1">
          <mxGeometry x="473" y="1766" width="120" height="60" as="geometry" />
        </mxCell>
        <mxCell id="kLjoqnNt8olyTbzULoK--32" value="&lt;b&gt;Application Layer&lt;/b&gt;" style="text;html=1;align=center;verticalAlign=middle;resizable=0;points=[];autosize=1;strokeColor=none;fillColor=none;" parent="1" vertex="1">
          <mxGeometry x="312" y="1214" width="119" height="26" as="geometry" />
        </mxCell>
        <mxCell id="kLjoqnNt8olyTbzULoK--33" value="&lt;b&gt;Middle Layer&lt;/b&gt;" style="text;html=1;align=center;verticalAlign=middle;resizable=0;points=[];autosize=1;strokeColor=none;fillColor=none;" parent="1" vertex="1">
          <mxGeometry x="326" y="1341" width="91" height="26" as="geometry" />
        </mxCell>
        <mxCell id="kLjoqnNt8olyTbzULoK--34" value="&lt;b&gt;BSP/Hardware Layer&lt;/b&gt;" style="text;html=1;align=center;verticalAlign=middle;resizable=0;points=[];autosize=1;strokeColor=none;fillColor=none;" parent="1" vertex="1">
          <mxGeometry x="321.5" y="1639" width="136" height="26" as="geometry" />
        </mxCell>
        <mxCell id="QKvP075wMy8OfiMq4f28-1" value="AT Command" style="text;html=1;align=center;verticalAlign=middle;resizable=0;points=[];autosize=1;strokeColor=none;fillColor=none;" vertex="1" parent="1">
          <mxGeometry x="255" y="470" width="91" height="26" as="geometry" />
        </mxCell>
      </root>
    </mxGraphModel>
  </diagram>
</mxfile>
